<?xml version="1.0" encoding="UTF-8"?>
<!DOCTYPE svg PUBLIC "-//W3C//DTD SVG 1.1//EN" "http://www.w3.org/Graphics/SVG/1.1/DTD/svg11.dtd">
<!-- Creator: CorelDRAW 2017 -->
<svg xmlns="http://www.w3.org/2000/svg" xml:space="preserve" width="215.9mm" height="279.4mm" version="1.1" style="shape-rendering:geometricPrecision; text-rendering:geometricPrecision; image-rendering:optimizeQuality; fill-rule:evenodd; clip-rule:evenodd"
viewBox="0 0 21590 27940"
 xmlns:xlink="http://www.w3.org/1999/xlink">
 <defs>
  <style type="text/css">
   <![CDATA[
    .fil0 {fill:#63BD6A}
    .fil1 {fill:#127D4A}
   ]]>
  </style>
     <clipPath id="id0">
      <path d="M3527.62 7703.18l15287.2 0 0 13417.21 -15287.2 0 0 -13417.21z"/>
     </clipPath>
     <clipPath id="id1">
      <path d="M4512.64 8091.07l12943.74 0 210.36 12662.47 -12943.74 0 -210.36 -12662.47z"/>
     </clipPath>
 </defs>
 <g id="Capa_x0020_1">
  <metadata id="CorelCorpID_0Corel-Layer"/>
  <g id="_2139331230256">
   <g>
    <g style="clip-path:url(#id0)">
     <image x="3527.62" y="7703.18" width="15287.2" height="13417.21" xlink:href="CIRCLE_Images\CIRCLE_ImgID1.png"/>
    </g>
   </g>
   <path class="fil0" d="M11171.22 19582.24c3365.61,0 6093.97,-2312.67 6093.97,-5165.46 0,-2852.8 -2728.36,-5165.47 -6093.97,-5165.47 -3365.61,0 -6093.97,2312.67 -6093.97,5165.47 0,2852.79 2728.36,5165.46 6093.97,5165.46zm5008.95 -5165.91c0,2693.18 -2242.58,4876.43 -5008.95,4876.43 -2766.37,0 -5008.95,-2183.25 -5008.95,-4876.43 0,-2693.18 2242.58,-4876.43 5008.95,-4876.43 2766.37,0 5008.95,2183.25 5008.95,4876.43z"/>
   <g>
    <g style="clip-path:url(#id1)">
     <image x="4512.64" y="8091.07" width="13154.1" height="12662.47" xlink:href="CIRCLE_Images\CIRCLE_ImgID2.png"/>
    </g>
   </g>
   <path class="fil1" d="M6437.26 14416.06c0,-2544.99 2119.19,-4608.11 4733.34,-4608.11 2614.15,0 4733.34,2063.12 4733.34,4608.11 0,2544.99 -2119.19,4608.11 -4733.34,4608.11 -2614.15,0 -4733.34,-2063.12 -4733.34,-4608.11zm4733.34 -4876.43c-2766.37,0 -5008.95,2183.25 -5008.95,4876.43 0,2693.18 2242.58,4876.43 5008.95,4876.43 2766.37,0 5008.95,-2183.25 5008.95,-4876.43 0,-2693.18 -2242.58,-4876.43 -5008.95,-4876.43z"/>
   <path class="fil0" d="M17877.55 14319.82c0,3597.59 -2995.68,6514.03 -6691.05,6514.03 -3695.37,0 -6691.05,-2916.44 -6691.05,-6514.03 0,-3597.6 2995.68,-6514.03 6691.05,-6514.03 3695.37,0 6691.05,2916.43 6691.05,6514.03zm-6691.05 -5671.57c3695.37,0 6691.05,2539.26 6691.05,5671.57 0,3132.31 -2995.68,5671.57 -6691.05,5671.57 -3695.37,0 -6691.05,-2539.26 -6691.05,-5671.57 0,-3132.31 2995.68,-5671.57 6691.05,-5671.57z"/>
  </g>
 </g>
</svg>
