<svg xmlns="http://www.w3.org/2000/svg" xmlns:xlink="http://www.w3.org/1999/xlink" width="300" height="300" viewBox="0 0 300 300"><defs><linearGradient id="a" x1="0.5" x2="0.5" y2="1" gradientUnits="objectBoundingBox"><stop offset="0" stop-color="#dad4ec"/><stop offset="1" stop-color="#ffb199"/></linearGradient></defs><g transform="translate(-186 -1275)"><circle cx="150" cy="150" r="150" transform="translate(186 1275)" fill="url(#a)"/><g transform="translate(208.615 1302)"><path d="M.5,64.077V202.1a22.226,22.226,0,0,0,22.226,22.226H234.462A22.226,22.226,0,0,0,256.688,202.1V64.077A21.99,21.99,0,0,0,234.7,42.086H22.491A21.99,21.99,0,0,0,.5,64.077Zm0,0" transform="translate(0 -20.999)" fill="#c4e2f2"/><path d="M256.365,419.935l-51.673,11.775-51.677-11.775,7.079-29.656,42.4-15.591,46.788,15.591,2.29,9.6Zm0,0" transform="translate(-76.097 -186.95)" fill="#2d303b"/><path d="M256.692,356.219v2.615a22.232,22.232,0,0,1-22.23,22.23H22.729A22.227,22.227,0,0,1,.5,358.834v-2.615Zm0,0" transform="translate(-0.002 -177.735)" fill="#3c3f4d"/><path d="M280.576,445.02H201.539l4.789-20.056h69.458Zm0,0" transform="translate(-100.308 -212.035)" fill="#3c3f4d"/><path d="M256.5,481.5v7.042H92.247V481.5a16.511,16.511,0,0,1,16.511-16.511h131.23A16.511,16.511,0,0,1,256.5,481.5Zm0,0" transform="translate(-45.777 -232.007)" fill="#2d303b"/><path d="M284.609,481.5v7.042H148.583V481.5A16.513,16.513,0,0,1,165.1,464.992h103A16.511,16.511,0,0,1,284.609,481.5Zm0,0" transform="translate(-73.886 -232.007)" fill="#3c3f4d"/><path d="M80.049,100.137H184.693l13.333,128.31H66.719Zm0,0" transform="translate(-33.04 -49.963)" fill="#ff491f"/><path d="M186.786,182.934h72.741l9.266,86.825H177.52Zm0,0" transform="translate(-88.324 -91.275)" fill="#ed3618"/><path d="M206.611,182.934H279.35l9.268,86.825H197.344Zm0,0" transform="translate(-98.215 -91.275)" fill="#ffe14d"/><path d="M193.963,71.316a3.92,3.92,0,0,1-3.92-3.922V41.517a24.311,24.311,0,1,0-48.622,0V67.394a3.921,3.921,0,0,1-7.843,0V41.517a32.153,32.153,0,0,1,64.307,0V67.394a3.922,3.922,0,0,1-3.922,3.922Zm0,0" transform="translate(-66.399 -4.672)" fill="#3c3f4d"/><path d="M267.731,248.271a20.8,20.8,0,0,1-20.782-20.782v-16.86a3.921,3.921,0,1,1,7.843,0v16.86a12.939,12.939,0,1,0,25.878,0v-16.86a3.921,3.921,0,1,1,7.843,0v16.86a20.8,20.8,0,0,1-20.782,20.782Zm0,0" transform="translate(-122.966 -103.136)" fill="#fff"/><path d="M398.942,38.332A38.332,38.332,0,1,1,360.61,0,38.332,38.332,0,0,1,398.942,38.332Zm0,0" transform="translate(-160.55)" fill="#32cc77"/><path d="M376.444,77.594a3.923,3.923,0,0,1-3.427-2.018L362.559,56.753a3.921,3.921,0,0,1,6.856-3.807l6.8,12.233,15-30.866a3.921,3.921,0,1,1,7.052,3.429l-18.3,37.643a3.924,3.924,0,0,1-3.419,2.206Zm0,0" transform="translate(-180.403 -16.019)" fill="#fff"/><g transform="translate(200.78 99.745)"><path d="M441.783,206.913H404.139a3.921,3.921,0,0,1,0-7.843h37.643a3.921,3.921,0,0,1,0,7.843Zm0,0" transform="translate(-400.219 -199.071)" fill="#3c3f4d"/><path d="M449.592,243.436h-29.8a3.921,3.921,0,1,1,0-7.843h29.8a3.921,3.921,0,0,1,0,7.843Zm0,0" transform="translate(-408.029 -217.294)" fill="#3c3f4d"/></g></g></g></svg>