<svg xmlns="http://www.w3.org/2000/svg" xmlns:xlink="http://www.w3.org/1999/xlink" width="300" height="300" viewBox="0 0 300 300"><defs><linearGradient id="a" x1="0.5" x2="0.5" y2="1" gradientUnits="objectBoundingBox"><stop offset="0" stop-color="#dad4ec"/><stop offset="1" stop-color="#ffb199"/></linearGradient></defs><g transform="translate(-570 -1275)"><g transform="translate(570 1275)" stroke="#fff" stroke-width="1" fill="url(#a)"><circle cx="150" cy="150" r="150" stroke="none"/><circle cx="150" cy="150" r="149.5" fill="none"/></g><g transform="translate(570 1323.5)"><path d="M339.128,92.839l-5.848,16.068a3.707,3.707,0,0,1-4.743,2.215l-19.777-7.2a51.4,51.4,0,0,1-7.073,8.419l10.53,18.23a3.575,3.575,0,0,1,.18.362,3.7,3.7,0,0,1-1.538,4.7l-14.811,8.547a3.7,3.7,0,0,1-5.058-1.352L280.471,124.6a51.022,51.022,0,0,1-10.83,1.894l-3.657,20.735a3.7,3.7,0,0,1-4.287,3l-16.839-2.967a3.708,3.708,0,0,1-3.005-4.291l3.653-20.721a51.194,51.194,0,0,1-9.516-5.506l-16.129,13.529a3.7,3.7,0,0,1-5.214-.457l-10.992-13.1a3.707,3.707,0,0,1,.457-5.22l16.12-13.526a50.556,50.556,0,0,1-3.761-10.333H195.427a3.7,3.7,0,0,1-3.7-3.7v-17.1a3.7,3.7,0,0,1,3.7-3.706h21.045a50.674,50.674,0,0,1,3.761-10.333l-16.12-13.526a3.7,3.7,0,0,1-.457-5.214l10.992-13.1a3.7,3.7,0,0,1,5.214-.457l16.129,13.535a51.108,51.108,0,0,1,9.516-5.51L241.854,7.814a3.7,3.7,0,0,1,3.005-4.287L261.7.556a3.7,3.7,0,0,1,3.905,1.9,3.654,3.654,0,0,1,.382,1.1l3.657,20.73a51.14,51.14,0,0,1,10.83,1.9L290.99,7.971a3.706,3.706,0,0,1,5.058-1.358l14.811,8.553a3.7,3.7,0,0,1,1.358,5.054l-10.53,18.234a51.267,51.267,0,0,1,7.073,8.419l19.777-7.2a3.7,3.7,0,0,1,4.743,2.215l5.848,16.068a3.7,3.7,0,0,1-2.209,4.743l-19.777,7.2a52.282,52.282,0,0,1,0,11l19.777,7.195a3.7,3.7,0,0,1,2.209,4.748Zm0,0" transform="translate(-103.353 0)" fill="#63a6fd"/><path d="M310.859,135.629l-14.809,8.547a3.7,3.7,0,0,1-5.058-1.352L280.472,124.6a51.023,51.023,0,0,1-10.83,1.894l-3.657,20.735a3.7,3.7,0,0,1-4.285,3l-16.84-2.967a3.711,3.711,0,0,1-3.005-4.291l3.653-20.721a51.252,51.252,0,0,1-9.516-5.506l-16.129,13.529a3.7,3.7,0,0,1-5.214-.457l-10.992-13.1a3.707,3.707,0,0,1,.457-5.22l16.12-13.526a50.556,50.556,0,0,1-3.761-10.333H195.427a3.7,3.7,0,0,1-3.7-3.7v-17.1a3.7,3.7,0,0,1,3.7-3.706h21.045a50.674,50.674,0,0,1,3.761-10.333l-16.12-13.526a3.7,3.7,0,0,1-.457-5.214l10.992-13.1a3.7,3.7,0,0,1,5.214-.457l16.129,13.535a51.167,51.167,0,0,1,9.516-5.51L241.854,7.814a3.705,3.705,0,0,1,3.005-4.287L261.7.556a3.7,3.7,0,0,1,3.905,1.9A79.295,79.295,0,0,0,312.4,130.933a3.706,3.706,0,0,1-1.54,4.7Zm0,0" transform="translate(-103.353 0)" fill="#1980f9"/><path d="M277.17,365.4l-81.826,41.49a33.21,33.21,0,0,1-35.8-.094c-5.079-3.275-6.675-3.592-33.38-16.8-11.867-5.807-22.678-7.654-40.3-9.827V328.915H144.3a13.673,13.673,0,0,1,9.673,4.01c.8.8-5.331-5.33,26.286,26.281a11.954,11.954,0,0,1,3.5,8.779l.562-.385L270.1,346.007c11.365-1.437,16.455,13.434,7.073,19.388Zm0,0" transform="translate(-46.287 -177.036)" fill="#f2bb88"/><path d="M180.591,375.635a11.579,11.579,0,0,1-16.533.146L142.2,353.921a6.221,6.221,0,0,0-4.4-1.822H85.867v-23.18H144.3a13.671,13.671,0,0,1,9.673,4.006c.8.8-5.33-5.33,26.286,26.281a11.771,11.771,0,0,1,.328,16.43Zm0,0" transform="translate(-46.288 -177.038)" fill="#f2d1a5"/><path d="M42.5,308.909v63.368a14.707,14.707,0,0,1-.243,2.641h-.005a14.515,14.515,0,0,1-14.219,11.826H14.467A14.51,14.51,0,0,1,0,372.277V308.909A14.517,14.517,0,0,1,11.925,294.67a13.968,13.968,0,0,1,2.542-.229H28.036A14.51,14.51,0,0,1,42.5,308.909Zm0,0" transform="translate(0 -158.453)" fill="#63a6fd"/><path d="M344.946,116.387l-38.908,38.908-1.649,1.647a6.57,6.57,0,0,1-9.3,0l-17.325-17.319a3.573,3.573,0,1,1,5.052-5.054l16.92,16.925,2.573-2.571L339.9,111.334a3.571,3.571,0,1,1,5.049,5.052Zm0,0" transform="translate(-149.168 -59.184)" fill="#fff5f4"/><path d="M42.257,375.189a14.516,14.516,0,0,1-14.221,11.824H14.469A14.51,14.51,0,0,1,0,372.546V309.18a14.515,14.515,0,0,1,11.925-14.239,14.231,14.231,0,0,0-.247,2.641v63.368a14.509,14.509,0,0,0,14.467,14.467H39.709a14,14,0,0,0,2.548-.229Zm0,0" transform="translate(0 -158.722)" fill="#4395fb"/><path d="M44.655,435.24a8.556,8.556,0,1,1-8.556-8.556A8.555,8.555,0,0,1,44.655,435.24Zm0,0" transform="translate(-14.847 -229.739)" fill="#285fb3"/></g></g></svg>