<svg xmlns="http://www.w3.org/2000/svg" xmlns:xlink="http://www.w3.org/1999/xlink" width="300" height="300" viewBox="0 0 300 300"><defs><linearGradient id="a" x1="0.5" x2="0.5" y2="1" gradientUnits="objectBoundingBox"><stop offset="0" stop-color="#dad4ec"/><stop offset="1" stop-color="#ffb199"/></linearGradient></defs><g transform="translate(-954 -1275)"><circle cx="150" cy="150" r="150" transform="translate(954 1275)" fill="url(#a)"/><g transform="translate(986 1323.699)"><path d="M491.49,104.009,449.1,61.543V231.715h56.724V138.489A48.628,48.628,0,0,0,491.49,104.009Zm0,0" transform="translate(-270.827 -36.931)" fill="#ffb782"/><path d="M33.129,163.781,1.087,80.6a16.2,16.2,0,0,1,9.3-20.947L161.625,1.4a16.2,16.2,0,0,1,20.946,9.3l32.042,83.182a16.206,16.206,0,0,1-9.3,20.947L54.079,173.08A16.212,16.212,0,0,1,33.129,163.781Zm0,0" transform="translate(0 -0.004)" fill="#de4c3c"/><path d="M213.534,101.961,32.2,172.251,44.27,203.6l181.346-70.258Zm0,0" transform="translate(-19.415 -61.305)" fill="#7a4930"/><path d="M0,105.646V16.508A16.208,16.208,0,0,1,16.211.3H178.28a16.208,16.208,0,0,1,16.208,16.207v89.138a16.208,16.208,0,0,1-16.208,16.207H16.211A16.208,16.208,0,0,1,0,105.646Zm0,0" transform="translate(-0.003 0)" fill="#4398d1"/><path d="M238.292.3H221.072L99.519,121.853H238.292A16.208,16.208,0,0,0,254.5,105.646V16.508A16.208,16.208,0,0,0,238.292.3Zm0,0" transform="translate(-60.014 0)" fill="#3e8cc7"/><path d="M40.832,163.609H57.039v8.1H40.832Zm0,0" transform="translate(-24.623 -98.481)" fill="#5eb3d1"/><path d="M40.832,224.852H57.039v8.1H40.832Zm0,0" transform="translate(-24.623 -135.413)" fill="#5eb3d1"/><path d="M224.555,224.852h16.207v8.1H224.555Zm0,0" transform="translate(-135.415 -135.413)" fill="#5eb3d1"/><path d="M102.074,163.609H118.28v8.1H102.074Zm0,0" transform="translate(-61.555 -98.481)" fill="#5eb3d1"/><path d="M163.313,163.609H179.52v8.1H163.313Zm0,0" transform="translate(-98.484 -98.481)" fill="#5eb3d1"/><path d="M224.555,163.609h16.207v8.1H224.555Zm0,0" transform="translate(-135.415 -98.481)" fill="#5eb3d1"/><path d="M418.484,41.129h8.1V53.284h-8.1Zm0,0" transform="translate(-252.362 -24.621)" fill="#5eb3d1"/><path d="M377.656,41.129h8.1V53.284h-8.1Zm0,0" transform="translate(-227.741 -24.621)" fill="#5eb3d1"/><path d="M336.828,41.129h8.1V53.284h-8.1Zm0,0" transform="translate(-203.12 -24.621)" fill="#5eb3d1"/><path d="M296,41.129h8.1V53.284H296Zm0,0" transform="translate(-178.502 -24.621)" fill="#5eb3d1"/><path d="M408.277,490.23h72.931v40.517H408.277Zm0,0" transform="translate(-246.207 -295.446)" fill="#88b337"/><path d="M332.8,176.906A17.564,17.564,0,0,0,307.44,201.2l33.2,36.223a54.644,54.644,0,0,0,1.106,56.063l2.946,4.712h52.672V241.471Zm0,0" transform="translate(-182.625 -103.41)" fill="#ffb782"/><path d="M438.9,520.852H447v8.1h-8.1Zm0,0" transform="translate(-264.672 -313.912)" fill="#6b962a"/><path d="M40.832,67.06V47.612a6.481,6.481,0,0,1,6.483-6.483H66.763a6.48,6.48,0,0,1,6.482,6.483V67.06a6.48,6.48,0,0,1-6.482,6.483H47.315A6.481,6.481,0,0,1,40.832,67.06Zm0,0" transform="translate(-24.623 -24.621)" fill="#fdb62f"/><path d="M40.832,71.75H52.987v8.1H40.832Zm0,0" transform="translate(-24.623 -43.087)" fill="#fd7b2f"/><path d="M91.867,71.75h12.154v8.1H91.867Zm0,0" transform="translate(-55.4 -43.087)" fill="#fd7b2f"/><path d="M500.058,310.481a4.044,4.044,0,0,1-2.864-1.188l-16.207-16.207a4.052,4.052,0,0,1,5.729-5.73l16.207,16.207a4.053,4.053,0,0,1-2.866,6.917Zm0,0" transform="translate(-289.368 -172.42)" fill="#f2a46f"/></g></g></svg>