<svg xmlns="http://www.w3.org/2000/svg" xmlns:xlink="http://www.w3.org/1999/xlink" width="102.414" height="82.667" viewBox="0 0 102.414 82.667">
  <defs>
    <clipPath id="clip-path">
      <path id="Trazado_151" data-name="Trazado 151" d="M3151.4,7261.4h94.188v82.667H3151.4Z" transform="translate(-3151.4 -7261.399)" clip-rule="evenodd"/>
    </clipPath>
    <clipPath id="clip-path-2">
      <path id="Trazado_153" data-name="Trazado 153" d="M4136.42,7649.289h79.75l1.3,78.017h-79.75Z" transform="translate(-4136.42 -7649.289)" clip-rule="evenodd"/>
    </clipPath>
  </defs>
  <g id="Capa_x0020_1" transform="translate(-3151.399 -7261.399)">
    <g id="_2220587995968" transform="translate(3151.399 7261.399)">
      <g id="Grupo_14" data-name="Grupo 14">
        <g id="Grupo_13" data-name="Grupo 13" clip-path="url(#clip-path)">
          <rect id="Rect치ngulo_421" data-name="Rect치ngulo 421" width="94.188" height="82.667" transform="translate(0 0)" fill="none"/>
        </g>
      </g>
      <path id="Trazado_152" data-name="Trazado 152" d="M4738.576,8873.222c20.737,0,37.547-14.248,37.547-31.825s-16.81-31.826-37.547-31.826-37.546,14.249-37.546,31.826S4717.839,8873.222,4738.576,8873.222Zm30.861-31.829c0,16.594-13.817,30.045-30.861,30.045s-30.861-13.451-30.861-30.045,13.817-30.044,30.861-30.044S4769.438,8824.8,4769.438,8841.393Z" transform="translate(-4691.482 -8800.031)" fill="#63bd6a" fill-rule="evenodd"/>
      <g id="Grupo_16" data-name="Grupo 16" transform="translate(6.069 2.39)">
        <g id="Grupo_15" data-name="Grupo 15" clip-path="url(#clip-path-2)">
          <rect id="Rect치ngulo_422" data-name="Rect치ngulo 422" width="81.046" height="78.017" transform="translate(0 0)" fill="none"/>
        </g>
      </g>
      <path id="Trazado_154" data-name="Trazado 154" d="M5787.128,9127.914c0-15.68,13.057-28.392,29.163-28.392s29.164,12.712,29.164,28.392-13.058,28.393-29.164,28.393S5787.128,9143.595,5787.128,9127.914Zm29.163-30.045c-17.044,0-30.861,13.452-30.861,30.045s13.817,30.045,30.861,30.045,30.861-13.451,30.861-30.045S5833.335,9097.869,5816.291,9097.869Z" transform="translate(-5769.201 -9086.554)" fill="#127d4a" fill-rule="evenodd"/>
      <path id="Trazado_155" data-name="Trazado 155" d="M4201.652,7404.1c0,22.165-18.458,40.135-41.225,40.135s-41.226-17.97-41.226-40.135,18.458-40.135,41.226-40.135S4201.652,7381.938,4201.652,7404.1Zm-41.225-34.944c22.768,0,41.225,15.645,41.225,34.944s-18.458,34.943-41.225,34.943S4119.2,7423.4,4119.2,7404.1,4137.659,7369.16,4160.427,7369.16Z" transform="translate(-4113.239 -7363.338)" fill="#63bd6a" fill-rule="evenodd"/>
    </g>
    <g id="_2220587995936" transform="translate(3170.413 7296.379)">
      <path id="Trazado_156" data-name="Trazado 156" d="M6312.926,12939.161l-.084-.268h3.535l.482,1.656.544-1.656h3.448l-1.745,4.734-.665,1.8v4.317h-3.56v-4.318a4.715,4.715,0,0,0-.144-.608c-.112-.4-.242-.8-.375-1.19-.027-.081-.054-.16-.082-.241v.5a2.184,2.184,0,0,1-.812,1.863,3.865,3.865,0,0,1-2,.491v3.508h-5.9l-.229-1.612-.232,1.612h-.947l.017.013h-4.467l-.011-.013h-13.449v-8.265h-.185v8.265h-3.559v-8.265H6281.3v-2.591h18.263a3.742,3.742,0,0,1,1.953.5,2.05,2.05,0,0,1,1.007,1.854v1.139a1.38,1.38,0,0,0-.131,2.246l.972-5.743h3.945l.65,3.835v-3.835h2.966A6.233,6.233,0,0,1,6312.926,12939.161Zm-16.724,2.311h-1.04v1.207h1.04Zm0,3.717h-1.04v1.983h1.04Zm-21.538-5.839a4.072,4.072,0,0,1,2.208-.539c1.606,0,2.938.648,2.938,2.362v2.4h-2.579v.99h2.579v3.095a1.9,1.9,0,0,1-1.021,1.664,3.691,3.691,0,0,1-1.917.507,4.205,4.205,0,0,1-2.208-.5v.423h-6.037l-.254-.863v.863h-5.586l-.229-1.612-.232,1.612h-3.58l1.837-10.855h3.945l.649,3.835v-3.835h3.686l.015.05v-.05h5.785Zm-20.59,7.822-1.151-8.278h3.538l.116,1.035.117-1.035h3.538l-1.516,10.855h-4.284l-.146-1.054v1.054h-7.857l-.229-1.612-.232,1.612h-4.535l-.114-.212a2.8,2.8,0,0,1-1.243.293,3.09,3.09,0,0,1-1.746-.507,2.042,2.042,0,0,1-.879-1.793v-6.194c0-1.832,1.409-2.525,3.13-2.525,1.611,0,3.008.621,3.008,2.362v1.478l.636-3.757h3.944l.678,4v-4h3.56v8.278Zm-10.648-3.557h-2.416v.067h2.4Z" transform="translate(-6237.451 -12938.811)" fill="#fefefe" fill-rule="evenodd"/>
    </g>
    <text id="GALVANIC_THERAPY" data-name="GALVANIC THERAPY" transform="translate(3170.946 7306.811)" fill="#106b43" font-size="14" font-family="Haettenschweiler"><tspan x="0" y="0">GALVANIC THERAPY</tspan></text>
  </g>
</svg>
